HIERARCHY
ROOT pelvis
{
  OFFSET 0 100 0
  CHANNELS 6 Xposition Yposition Zposition Zrotation Xrotation Yrotation
  JOINT pelvis_right_femur
  {
    OFFSET -10.78128 -3.44521 -0.5502486
    CHANNELS 3 Zrotation Xrotation Yrotation
    JOINT right_femur_tibia
    {
      OFFSET -0.8047443 -44.0398 -0.1307829
      CHANNELS 3 Zrotation Xrotation Yrotation
      JOINT right_tibia_foot
      {
        OFFSET 3.006224 -47.83518 -5
        CHANNELS 3 Zrotation Xrotation Yrotation
        End Site
        {
          OFFSET 0 -5 15
        }
      }
    }
  }
  JOINT pelvis_left_femur
  {
    OFFSET 10.78128 -3.44521 -0.5502486
    CHANNELS 3 Zrotation Xrotation Yrotation
    JOINT left_femur_tibia
    {
      OFFSET 0.8047443 -44.0398 -0.1307829
      CHANNELS 3 Zrotation Xrotation Yrotation
      JOINT left_tibia_foot
      {
        OFFSET -4.370144 -48.10324 -4.275266
        CHANNELS 3 Zrotation Xrotation Yrotation
        End Site
        {
          OFFSET 0 -5 15
        }
      }
    }
  }
  JOINT pelvis_spine1
  {
    OFFSET 0 6.468898 -3.129235
    CHANNELS 3 Zrotation Xrotation Yrotation
    JOINT spine1
    {
      OFFSET 0 23.15396 4.99043
      CHANNELS 3 Zrotation Xrotation Yrotation
      JOINT spine2
      {
        OFFSET 0 20.79997 -5.064912
        CHANNELS 3 Zrotation Xrotation Yrotation
        JOINT neck
        {
          OFFSET 0 14.38658 9.616178
          CHANNELS 3 Zrotation Xrotation Yrotation
          End Site
          {
            OFFSET 0 20 0
          }
        }
      }
      JOINT right_manubrium
      {
        OFFSET -5.722621 16.35077 3.967754
        CHANNELS 3 Zrotation Xrotation Yrotation
        JOINT right_clavicle
        {
          OFFSET -13.16364 1.694482 -4.693211
          CHANNELS 3 Zrotation Xrotation Yrotation
          JOINT right_humerus
          {
            OFFSET -28.5034 -0.3100689 -2.792744
            CHANNELS 3 Zrotation Xrotation Yrotation
            JOINT right_radius
            {
              OFFSET -25.15693 0.02248979 -1.271978
              CHANNELS 3 Zrotation Xrotation Yrotation
              End Site
              {
                OFFSET -15 0 0
              }
            }
          }
        }
      }
      JOINT left_manubrium
      {
        OFFSET 5.722621 16.35077 3.967754
        CHANNELS 3 Zrotation Xrotation Yrotation
        JOINT left_clavicle
        {
          OFFSET 13.16364 1.694482 -4.693211
          CHANNELS 3 Zrotation Xrotation Yrotation
          JOINT left_humerus
          {
            OFFSET 29.39168 -1.063119 -2.237045
            CHANNELS 3 Zrotation Xrotation Yrotation
            JOINT left_radius
            {
              OFFSET 24.59957 -0.9528479 0.9047498
              CHANNELS 3 Zrotation Xrotation Yrotation
              End Site
              {
                OFFSET 15 -0 -0
              }
            }
          }
        }
      }
    }
  }
}
MOTION
Frames: 21
Frame Time: 0.0416666666667
23.16761 100.5598 260.5398 0.7427496 -6.065021 -0.6279032 3.350999 16.70338 8.008668 -0 21.85039 -0 -0.1156475 -15.56767 -7.92454 0.9305941 -25.95925 -1.809382 -0 23.86229 -0 -5.488639 -6.894124 17.86677 -0.3085526 1.446627 8.352388 -1.23981 10.84327 -2.796702 2.088559 18.39335 3.96133 0.2374326 -12.99146 6.782936 1.841156 -23.6806 12.02733 78.64133 16.65692 -5.764003 -0 0 27.00818 -26.43738 11.53002 17.1667 3.190828 -16.77903 -3.28939 -91.51103 21.24999 25.33429 0 0 -13.20761 -4.350684 3.104893 18.92997
24.33969 99.93368 268.2787 1.439692 -6.558314 -0.9782615 1.816277 18.45181 7.905492 -0 27.45644 -0 1.287581 -13.21044 -7.403747 -0.5957437 -25.60217 -3.215048 -0 23.71955 -0 -5.281266 -6.33204 17.42905 -1.107004 0.8650088 8.586385 -1.437193 10.79458 -2.849014 2.3319 18.36354 3.842958 0.1524092 -13.01299 6.999165 1.550756 -23.32911 11.50618 79.24881 15.91663 -5.76982 -0 0 27.50393 -26.52313 11.32665 17.21868 3.185604 -15.83708 -3.274644 -91.89784 21.56194 25.906 0 0 -12.25057 -4.532494 3.055105 19.34298
25.45206 100.1215 275.89 2.271744 -6.700553 -0.9450585 0.5026158 18.42564 7.530915 -0 34.94847 -0 2.368018 -10.07576 -7.347372 -2.519561 -22.46977 -4.74921 -0 25.25967 -0 -4.848053 -6.797282 16.99218 -2.055832 0.1281065 8.66866 -1.658397 10.75608 -2.788001 2.544861 18.56853 3.717481 0.07641467 -12.93014 7.179989 1.63539 -22.56308 11.11753 80.18304 15.44697 -6.4928 -0 0 26.8601 -26.32965 11.24135 16.96026 3.255854 -15.42279 -3.15999 -91.59004 21.96655 25.71241 0 0 -11.89715 -4.464439 3.101472 19.39898
26.60139 101.0645 283.609 2.4389 -7.762671 0.1828578 -0.5770413 15.67354 7.031253 -0 43.77501 -0 2.23555 -9.71388 -7.767629 -3.925572 -17.48775 -5.670308 -0 26.0054 -0 -4.155444 -8.428185 16.70267 -2.250964 0.08813785 8.114625 -1.678114 11.13847 -2.887687 2.647677 19.02804 3.654568 -0.06464384 -12.77326 7.369296 2.024047 -21.56239 10.90676 81.12805 15.23175 -7.726266 -0 0 25.2118 -25.84486 11.27623 16.42054 3.149491 -15.57593 -3.059393 -90.64976 22.44674 24.70077 0 0 -11.94828 -4.132085 3.22501 19.16011
27.5975 102.2273 290.4623 2.807037 -8.81253 1.091449 -0.3496545 11.16704 6.149862 -0 51.48018 -0 2.023575 -9.259474 -8.095168 -4.968967 -11.83722 -6.227764 -0 25.36396 -0 -3.507976 -10.23958 16.26004 -2.397459 0.5354177 7.305156 -1.752039 11.58403 -2.984365 2.555511 19.80559 3.712102 -0.2939485 -12.30954 7.562907 2.52821 -20.80177 10.76266 82.22869 15.25015 -8.865388 -0 0 23.38023 -25.17213 11.37014 15.84994 3.096114 -16.14308 -2.833808 -89.24611 22.95406 22.863 0 0 -12.45426 -3.566204 3.416406 18.71369
28.4075 103.5748 296.3919 2.709088 -8.833472 1.910399 -0.1406848 6.562448 5.415267 -0 56.23248 -0 2.214357 -7.795244 -8.194371 -5.134973 -6.106989 -6.275575 -0 22.89754 -0 -3.120166 -11.78542 15.55988 -2.523813 0.6088651 6.088323 -1.61782 11.31954 -3.483155 2.405562 20.4533 3.904109 -0.5892551 -12.11855 7.904992 2.976294 -20.04376 10.7374 83.63486 15.36083 -9.931608 -0 0 21.82883 -24.43633 11.44365 15.42089 3.243146 -16.91471 -2.992233 -87.70982 23.4741 20.26297 0 0 -13.37474 -2.912326 3.653462 18.11466
29.26564 105.0801 302.5904 2.456223 -9.733602 3.038547 0.7610526 -1.296149 4.657798 -0 56.13981 -0 1.85898 -8.417426 -8.165498 -4.959882 0.1659355 -6.272243 -0 20.09187 -0 -3.023333 -12.89087 14.74329 -2.436277 1.190021 4.61852 -1.104169 11.5 -4.490575 2.316752 21.22221 4.109674 -0.8244947 -11.78994 8.300863 2.951559 -19.1003 10.34968 84.50977 15.40195 -11.43818 -0 0 19.96755 -23.8255 11.51666 14.9031 3.432382 -17.53118 -3.326953 -86.42285 23.96723 17.42741 0 0 -14.53701 -2.325847 3.92569 17.42151
30.0468 105.8369 308.3645 2.216951 -9.580846 4.355647 0.9611477 -7.511285 3.831358 -0 52.5613 -0 1.582436 -7.750866 -8.808653 -4.469849 5.465206 -6.469204 -0 16.70548 -0 -3.048226 -14.01628 13.64567 -2.454782 1.233167 3.302648 -0.4811576 11.21002 -5.76316 2.380799 21.86955 4.236503 -0.9420424 -11.4308 8.681126 2.484892 -18.34765 9.778163 85.02653 15.37041 -12.83983 -0 0 18.49018 -23.43391 11.48875 14.62594 3.836236 -18.11355 -3.773341 -85.20141 24.46467 14.36531 0 0 -15.99085 -1.757502 4.240437 16.55414
30.88319 105.8185 314.3395 2.167327 -9.213005 6.249327 0.7280058 -13.19534 3.386185 -0 45.77329 -0 0.9831356 -7.071148 -9.568006 -4.122664 10.03896 -6.337119 -0 13.79924 -0 -3.096754 -15.37167 12.68643 -2.671626 1.135914 1.8789 0.2481545 10.79681 -7.361746 2.624013 22.21369 4.20681 -0.9415781 -11.29427 8.973743 1.889022 -17.29102 9.117127 85.51632 15.25702 -14.49723 -0 0 16.80959 -23.02375 11.37309 14.28287 4.394267 -18.72202 -4.40649 -83.91204 25.00153 11.22933 0 0 -17.54671 -1.157909 4.621635 15.56083
31.52447 105.0712 320.0706 2.18754 -8.377613 7.504665 -0.2909019 -17.15021 2.489433 -0 35.98969 -0 0.139922 -6.676304 -9.964011 -3.751306 13.78984 -6.123156 -0 11.86988 -0 -3.124162 -16.87238 11.8064 -2.951702 0.9386039 1.065957 0.8560784 10.18939 -8.316955 2.889429 22.53599 4.025763 -0.8919224 -11.29996 9.073095 1.428326 -16.17135 8.623591 85.92555 15.13181 -16.14139 -0 0 14.65439 -22.49483 11.24554 13.69121 5.167144 -19.52828 -4.558928 -82.48122 25.41676 8.104111 0 0 -19.40454 -0.3563247 5.111325 14.3989
32.2644 103.9369 325.9336 2.343715 -7.943599 8.278182 -1.231782 -20.69519 1.453239 -0 25.54281 -0 -0.953227 -6.552281 -10.39212 -3.693308 17.20749 -5.819672 -0 11.4163 -0 -3.194972 -18.29145 11.1266 -3.192949 0.8813309 0.4618389 1.257845 9.656745 -8.896437 3.199163 22.60121 3.731767 -0.7884106 -11.6184 9.036659 1.257313 -14.89961 8.386854 86.40391 15.06933 -17.77475 -0 0 11.95293 -21.85627 11.20129 12.95188 5.809455 -20.41666 -4.482674 -81.07173 25.72233 5.299514 0 0 -21.09368 0.5405409 5.664343 13.2024
32.72448 102.4561 331.8422 2.794772 -7.037962 8.943427 -1.236301 -22.47272 0.03666911 -0 15.9295 -0 -2.266337 -7.232255 -10.53286 -3.81324 19.50914 -5.540855 -0 12.35038 -0 -3.370853 -19.2701 10.71433 -3.042974 1.46431 1.49609 1.194379 8.94763 -7.475912 3.723193 22.076 3.184585 -0.5429058 -12.4454 8.804304 1.5181 -13.12142 9.836211 86.78879 15.05578 -19.21263 -0 0 9.3725 -21.30534 11.20252 12.32549 5.803431 -22.06339 -4.444003 -79.78287 25.91458 2.015238 0 0 -22.92125 1.403022 6.252545 11.93087
32.92289 101.4857 337.9215 2.36682 -6.657432 8.755091 -0.5985756 -23.13841 -0.4836597 -0 11.11886 -0 -3.430186 -7.743446 -10.14217 -3.11503 21.26588 -5.654367 -0 15.2067 -0 -3.720596 -19.17483 10.67205 -2.474009 1.851888 1.842024 1.359777 8.36796 -6.661723 3.877777 21.93732 2.865173 -0.4528717 -13.21626 8.542422 2.115181 -12.11831 10.77625 87.31645 15.1584 -20.22015 -0 0 6.507539 -20.69812 11.27645 11.78238 5.732247 -22.87514 -4.22398 -78.96261 26.04175 0.1487171 0 0 -23.8453 2.119146 6.806214 10.87601
33.278 100.664 345.2098 1.920848 -6.648584 9.524245 1.043136 -21.77387 0.5046732 -0 12.35836 -0 -4.453568 -7.410186 -9.898215 -1.964709 22.56474 -6.114232 -0 20.29882 -0 -4.223649 -17.67653 11.10575 -1.61497 1.300332 1.460061 1.503017 8.140996 -6.46922 3.740825 22.158 2.795266 -0.4660556 -13.81286 8.326928 2.430652 -11.181 10.81123 87.98253 15.17575 -21.15783 -0 0 4.101713 -20.16198 11.34823 11.45956 5.583091 -22.71238 -3.709876 -79.15351 26.27483 -0.2274932 0 0 -23.9806 2.586814 7.319421 10.08154
33.55187 100.3481 352.7587 1.26747 -7.186962 9.828285 2.707547 -19.38149 1.790723 -0 15.84578 -0 -5.340489 -6.827031 -9.372622 -0.9263525 22.7961 -6.63016 -0 27.9831 -0 -4.709078 -14.78864 12.16271 -0.5834625 0.7510228 1.001889 1.656562 8.148825 -6.564393 3.394549 22.69378 2.903579 -0.5369975 -14.18662 8.129211 2.539532 -11.01998 10.33412 88.27631 15.21921 -21.42874 -0 0 2.485747 -19.82665 11.35091 11.43097 5.4412 -21.87291 -3.030628 -79.98123 26.60624 0.6377753 0 0 -23.1242 2.756256 7.795371 9.62504
33.8275 100.9976 360.6939 0.6911291 -9.26005 9.857797 3.956247 -15.41019 3.663721 -0 21.16614 -0 -6.583234 -7.263424 -8.94639 0.09745101 20.49626 -6.907884 -0 37.59068 -0 -4.583867 -12.14468 14.25137 0.2653066 0.6014435 0.2801233 1.934526 8.68588 -7.355028 3.111652 23.78509 2.967503 -0.5232057 -14.36346 7.907136 2.619845 -11.68429 9.357665 87.92749 15.34877 -21.02914 -0 0 1.530411 -19.80379 11.22356 11.66285 4.978778 -20.60267 -2.421628 -81.28446 26.98537 2.581193 0 0 -21.06453 2.580166 8.225916 9.568271
34.1166 101.7826 368.2372 0.4560779 -11.25008 9.672234 5.38799 -10.48788 4.524874 -0 23.79415 -0 -7.443388 -8.877968 -9.058471 0.0584932 16.40898 -7.29505 -0 46.6369 -0 -4.581231 -9.44368 16.29565 0.8053738 0.9905929 0.604633 2.193525 9.355766 -7.38267 3.037495 24.24016 3.108601 -0.4559674 -14.92062 7.978462 2.774074 -11.7184 9.036626 87.6711 15.28452 -20.46526 -0 0 1.229023 -20.12063 10.94559 12.21418 4.243155 -19.75105 -2.366649 -82.96762 27.3931 4.525822 0 0 -18.62824 2.09796 8.646533 9.729234
34.30157 103.017 374.2289 0.8032981 -12.30398 8.448281 6.035922 -6.05656 4.124457 -0 22.89318 -0 -7.637581 -10.59584 -9.315739 -0.7284708 12.53141 -7.298353 -0 55.60393 -0 -4.661799 -6.782095 18.42318 0.5383854 1.744154 1.727305 2.225035 10.08982 -6.771493 3.142488 24.61658 3.038278 -0.2860629 -15.33718 7.922905 2.930846 -11.79986 9.25624 87.24231 15.19998 -19.39628 -0 0 1.603745 -20.56779 10.63239 12.87031 3.580989 -19.3744 -2.652133 -84.5463 27.79687 6.09192 0 0 -16.06385 1.380193 9.090389 10.02841
34.57239 104.6434 380.3041 1.689209 -13.1287 7.700611 5.406942 -0.1164766 3.533602 -0 20.7966 -0 -7.521661 -11.69176 -8.928569 -1.661422 5.500964 -6.688627 -0 58.8619 -0 -4.303531 -5.679007 19.94855 -0.1138559 2.392523 3.175618 1.970486 10.08007 -5.614099 3.353261 25.27936 2.76993 -0.05823142 -15.49008 7.709166 3.113831 -13.49207 10.06814 86.24468 15.31552 -16.52195 -0 0 3.749381 -20.7799 10.49826 13.0017 3.204919 -18.72941 -2.919131 -86.5157 28.04987 8.192164 0 0 -13.56932 0.6284088 9.498712 10.32037
34.85548 105.846 385.7431 2.313043 -12.91843 6.858214 4.581637 4.850531 2.885115 -0 17.66843 -0 -7.351667 -12.49675 -8.005988 -2.421243 -0.8687393 -6.01732 -0 56.92582 -0 -4.008617 -5.231554 20.75096 -0.622043 2.700278 4.25932 1.465488 9.738413 -4.334307 3.388104 25.56853 2.635027 0.06180219 -15.80355 7.51206 2.81612 -14.8435 10.73504 85.22036 15.29879 -13.81019 -0 0 6.441102 -21.05101 10.37042 13.18354 3.281203 -18.1241 -2.952783 -88.39389 28.04767 10.49677 0 0 -11.3785 0.02990355 9.878123 10.46823
35.1381 106.4211 390.9324 2.431708 -12.22558 5.385267 3.942677 9.085199 1.996601 -0 14.35585 -0 -7.400159 -13.30472 -6.769368 -2.55407 -6.63689 -5.636728 -0 49.96661 -0 -3.499808 -6.041636 21.18833 -0.8266484 2.777871 5.044329 0.8729978 9.310974 -3.037297 3.153381 25.63971 2.75945 0.04435078 -16.27167 7.403667 2.283771 -15.71949 11.07855 84.41966 15.12465 -11.51502 -0 0 9.278344 -21.20428 10.27945 13.27147 3.650636 -17.59069 -2.643592 -89.99919 27.7965 12.90903 0 0 -9.448942 -0.3339544 10.23548 10.44284
